<svg width="204" height="75" viewBox="0 0 204 75" fill="none" xmlns="http://www.w3.org/2000/svg">
<path d="M23.45 55L11.65 39.5V55H3.1V19.9H11.65V35.3L23.35 19.9H33.4L19.8 37.1L33.9 55H23.45ZM36.2633 41C36.2633 38.1333 36.7966 35.6167 37.8633 33.45C38.9633 31.2833 40.4466 29.6167 42.3133 28.45C44.1799 27.2833 46.2633 26.7 48.5633 26.7C50.5299 26.7 52.2466 27.1 53.7133 27.9C55.2133 28.7 56.3633 29.75 57.1633 31.05V27.1H65.7133V55H57.1633V51.05C56.3299 52.35 55.1633 53.4 53.6633 54.2C52.1966 55 50.4799 55.4 48.5133 55.4C46.2466 55.4 44.1799 54.8167 42.3133 53.65C40.4466 52.45 38.9633 50.7667 37.8633 48.6C36.7966 46.4 36.2633 43.8667 36.2633 41ZM57.1633 41.05C57.1633 38.9167 56.5633 37.2333 55.3633 36C54.1966 34.7667 52.7633 34.15 51.0633 34.15C49.3633 34.15 47.9133 34.7667 46.7133 36C45.5466 37.2 44.9633 38.8667 44.9633 41C44.9633 43.1333 45.5466 44.8333 46.7133 46.1C47.9133 47.3333 49.3633 47.95 51.0633 47.95C52.7633 47.95 54.1966 47.3333 55.3633 46.1C56.5633 44.8667 57.1633 43.1833 57.1633 41.05ZM88.8988 26.8C92.1655 26.8 94.7655 27.8667 96.6988 30C98.6655 32.1 99.6488 35 99.6488 38.7V55H91.1488V39.85C91.1488 37.9833 90.6655 36.5333 89.6988 35.5C88.7322 34.4667 87.4322 33.95 85.7988 33.95C84.1655 33.95 82.8655 34.4667 81.8988 35.5C80.9322 36.5333 80.4488 37.9833 80.4488 39.85V55H71.8988V27.1H80.4488V30.8C81.3155 29.5667 82.4822 28.6 83.9488 27.9C85.4155 27.1667 87.0655 26.8 88.8988 26.8Z" fill="#06234A"/>
<path d="M127.35 37C129.383 37.4333 131.017 38.45 132.25 40.05C133.483 41.6167 134.1 43.4167 134.1 45.45C134.1 48.3833 133.067 50.7167 131 52.45C128.967 54.15 126.117 55 122.45 55H106.1V19.9H121.9C125.467 19.9 128.25 20.7167 130.25 22.35C132.283 23.9833 133.3 26.2 133.3 29C133.3 31.0667 132.75 32.7833 131.65 34.15C130.583 35.5167 129.15 36.4667 127.35 37ZM114.65 34.1H120.25C121.65 34.1 122.717 33.8 123.45 33.2C124.217 32.5667 124.6 31.65 124.6 30.45C124.6 29.25 124.217 28.3333 123.45 27.7C122.717 27.0667 121.65 26.75 120.25 26.75H114.65V34.1ZM120.95 48.1C122.383 48.1 123.483 47.7833 124.25 47.15C125.05 46.4833 125.45 45.5333 125.45 44.3C125.45 43.0667 125.033 42.1 124.2 41.4C123.4 40.7 122.283 40.35 120.85 40.35H114.65V48.1H120.95ZM137.359 41C137.359 38.1333 137.892 35.6167 138.959 33.45C140.059 31.2833 141.542 29.6167 143.409 28.45C145.276 27.2833 147.359 26.7 149.659 26.7C151.626 26.7 153.342 27.1 154.809 27.9C156.309 28.7 157.459 29.75 158.259 31.05V27.1H166.809V55H158.259V51.05C157.426 52.35 156.259 53.4 154.759 54.2C153.292 55 151.576 55.4 149.609 55.4C147.342 55.4 145.276 54.8167 143.409 53.65C141.542 52.45 140.059 50.7667 138.959 48.6C137.892 46.4 137.359 43.8667 137.359 41ZM158.259 41.05C158.259 38.9167 157.659 37.2333 156.459 36C155.292 34.7667 153.859 34.15 152.159 34.15C150.459 34.15 149.009 34.7667 147.809 36C146.642 37.2 146.059 38.8667 146.059 41C146.059 43.1333 146.642 44.8333 147.809 46.1C149.009 47.3333 150.459 47.95 152.159 47.95C153.859 47.95 155.292 47.3333 156.459 46.1C157.659 44.8667 158.259 43.1833 158.259 41.05ZM189.995 26.8C193.261 26.8 195.861 27.8667 197.795 30C199.761 32.1 200.745 35 200.745 38.7V55H192.245V39.85C192.245 37.9833 191.761 36.5333 190.795 35.5C189.828 34.4667 188.528 33.95 186.895 33.95C185.261 33.95 183.961 34.4667 182.995 35.5C182.028 36.5333 181.545 37.9833 181.545 39.85V55H172.995V27.1H181.545V30.8C182.411 29.5667 183.578 28.6 185.045 27.9C186.511 27.1667 188.161 26.8 189.995 26.8Z" fill="#361BD2"/>
</svg>
